# xmcd
#
# Track frame offsets:
#	150
#	17060
#	33545
#	50438
#	63736
#	77751
#	96613
#	114687
#	132167
#	152902
#	165524
#	185244
#
# Disc length: 2744 seconds
#
# Revision: 1
# Processed by: cddbd v1.5.2PL0 Copyright (c) Steve Scherf et al.
# Submitted via: audiograbber 1.83.01
#
DISCID=aa0ab60c
DTITLE=Dwight Yoakam - 3 Pears
DYEAR=2012
DGENRE=Country
TTITLE0=Take Hold Of My Hand
TTITLE1=Waterfall
TTITLE2=Dim Lights, Thick Smoke
TTITLE3=Trying
TTITLE4=Nothing But Love
TTITLE5=It's Never Alright
TTITLE6=A Heart Like Mine
TTITLE7=Long Way To Go
TTITLE8=Missing Heart
TTITLE9=3 Pears
TTITLE10=Rock It All Away
TTITLE11=Long Way To Go (Reprise)
EXTD=
EXTT0=
EXTT1=
EXTT2=
EXTT3=
EXTT4=
EXTT5=
EXTT6=
EXTT7=
EXTT8=
EXTT9=
EXTT10=
EXTT11=
PLAYORDER=
